# xmcd CD database file
#
# Track frame offsets:
#	150
#	46945
#	88420
#	117145
#	155770
#	196420
#	235795
#	263920
#
# Disc length: 4201 seconds
#
# Revision: 0
# Processed by: cddbd v1.5.1PL2 Copyright (c) Steve Scherf et al.
# Submitted via: CDex 1.50Beta5
#
DISCID=69106708
DTITLE=Olivier Peters Sextet - The Open Door
DYEAR=1995
DGENRE=Jazz
TTITLE0=Daten-Track
TTITLE1=Rings
TTITLE2=Yesterday´s Gardenias
TTITLE3=Moments Of Joy
TTITLE4=All Of You
TTITLE5=The Open Door
TTITLE6=Twilight Of My Dreams
TTITLE7=Blues For Thad
EXTD=YEAR: 1995
EXTT0=
EXTT1=
EXTT2=
EXTT3=
EXTT4=
EXTT5=
EXTT6=
EXTT7=
PLAYORDER=
